# xmcd
# Track frame offsets:
# 182
# 14242
# 27930
# 40452
# 51862
# 66142
# 77290
# 93015
# 104065
# 117000
#
# Disc length: 1791 seconds
# Revision: 2
# Processed by: cddbd v1.4PL0 Copyright (c) Steve Scherf et al.
# Submitted via: VisiTrax 2.9.5.181 - For more info visit www.synapsa.com
#
DISCID=7c06fd0a
DTITLE=Neal McCoy - Where Forever Begins
DYEAR=1900
DGENRE=
TTITLE0=Now I Pray For Rain
TTITLE1=Palm Of My Hand
TTITLE2=The Wall
TTITLE3=The Day The Boys Leave The Girls Alone
TTITLE4=Where Forever Begins
TTITLE5=There Ain't Nothin I Don't Like About You
TTITLE6=A Little At A Time
TTITLE7=Big Doggin' Around
TTITLE8=Where Do Daddies Go
TTITLE9=Mountains On The Moon
EXTD=
EXTT0=
EXTT1=
EXTT2=
EXTT3=
EXTT4=
EXTT5=
EXTT6=
EXTT7=
EXTT8=
EXTT9=
PLAYORDER=
